<svg xmlns="http://www.w3.org/2000/svg" xmlns:xlink="http://www.w3.org/1999/xlink" version="1.1" x="0px" y="0px" fill="green" viewBox="0 0 100 125" style="enable-background:new 0 0 100 100;" xml:space="preserve"><g><path d="M22.2,29.8h55.6c2.3,0,4.2-1.9,4.2-4.2s-1.9-4.2-4.2-4.2H22.2c-2.3,0-4.2,1.9-4.2,4.2S19.9,29.8,22.2,29.8z"/><path d="M22.2,54.2h39.6c2.3,0,4.2-1.9,4.2-4.2s-1.9-4.2-4.2-4.2H22.2c-2.3,0-4.2,1.9-4.2,4.2S19.9,54.2,22.2,54.2z"/><path d="M77.8,70.2H22.2c-2.3,0-4.2,1.9-4.2,4.2s1.9,4.2,4.2,4.2h55.6c2.3,0,4.2-1.9,4.2-4.2S80.1,70.2,77.8,70.2z"/></g></svg>